<svg width="35" height="55" viewBox="0 0 35 55" fill="none" xmlns="http://www.w3.org/2000/svg">
<path d="M5.15172 15.24C4.16505 15.24 3.30505 15.0533 2.57172 14.68C1.85172 14.3067 1.29172 13.7867 0.891719 13.12C0.505052 12.4533 0.305052 11.6733 0.291719 10.78H2.05172C2.06505 11.58 2.33172 12.2733 2.85172 12.86C3.38505 13.4333 4.15172 13.72 5.15172 13.72C6.07172 13.72 6.77839 13.5 7.27172 13.06C7.77839 12.6067 8.03172 12.0667 8.03172 11.44C8.03172 10.92 7.91172 10.4867 7.67172 10.14C7.43172 9.78 7.03839 9.46667 6.49172 9.2C5.95839 8.92 5.23839 8.63333 4.33172 8.34C3.05172 7.95333 2.11839 7.42667 1.53172 6.76C0.945052 6.09333 0.651719 5.26667 0.651719 4.28C0.651719 3.61333 0.825052 3.01333 1.17172 2.48C1.51839 1.94667 2.01839 1.52667 2.67172 1.22C3.32505 0.913333 4.11839 0.76 5.05172 0.76C5.93172 0.76 6.69839 0.926666 7.35172 1.26C8.01839 1.58 8.53172 2.03333 8.89172 2.62C9.26505 3.20667 9.45172 3.88 9.45172 4.64H7.69172C7.69172 4.26667 7.59172 3.9 7.39172 3.54C7.19172 3.18 6.89172 2.88 6.49172 2.64C6.09172 2.4 5.58505 2.28 4.97172 2.28C4.23839 2.28 3.62505 2.46 3.13172 2.82C2.63839 3.16667 2.39172 3.64667 2.39172 4.26C2.39172 4.72667 2.49839 5.12 2.71172 5.44C2.93839 5.76 3.30505 6.05333 3.81172 6.32C4.31839 6.57333 5.00505 6.84667 5.87172 7.14C6.68505 7.40667 7.37839 7.72 7.95172 8.08C8.53839 8.42667 8.98505 8.86 9.29172 9.38C9.61172 9.9 9.77172 10.5467 9.77172 11.32C9.77172 12.08 9.57839 12.7533 9.19172 13.34C8.80505 13.9267 8.26505 14.3933 7.57172 14.74C6.87839 15.0733 6.07172 15.24 5.15172 15.24ZM12.7239 15V0.999999H21.4639V2.52H14.4039V7.18H20.8639V8.7H14.4039V13.48H21.4639V15H12.7239ZM24.3161 15V0.999999H28.9761C30.4294 0.999999 31.5228 1.33333 32.2561 2C32.9894 2.66667 33.3561 3.52 33.3561 4.56C33.3561 5.37333 33.1361 6.04667 32.6961 6.58C32.2561 7.1 31.7628 7.46667 31.2161 7.68V7.82C31.8694 8.03333 32.4428 8.42 32.9361 8.98C33.4294 9.54 33.6761 10.26 33.6761 11.14C33.6761 11.86 33.4961 12.5133 33.1361 13.1C32.7894 13.6733 32.2761 14.1333 31.5961 14.48C30.9294 14.8267 30.1094 15 29.1361 15H24.3161ZM25.9961 7.04H28.8561C29.7494 7.04 30.4294 6.84667 30.8961 6.46C31.3761 6.06 31.6161 5.48667 31.6161 4.74C31.6161 4.03333 31.3828 3.48667 30.9161 3.1C30.4494 2.71333 29.7428 2.52 28.7961 2.52H25.9961V7.04ZM25.9961 13.46H28.9561C29.9161 13.46 30.6561 13.2467 31.1761 12.82C31.6961 12.38 31.9561 11.7667 31.9561 10.98C31.9561 10.1933 31.6828 9.58667 31.1361 9.16C30.5894 8.72 29.8494 8.5 28.9161 8.5H25.9961V13.46ZM7.70781 28.72V27.28H14.3078V28.72H7.70781ZM19.7 28.72V27.28H26.3V28.72H19.7ZM0.331719 55V41H3.27172C5.56505 41 7.25839 41.6267 8.35172 42.88C9.45839 44.1333 10.0117 45.84 10.0117 48C10.0117 50.16 9.45839 51.8667 8.35172 53.12C7.25839 54.3733 5.56505 55 3.27172 55H0.331719ZM2.01172 53.46H3.23172C4.45839 53.46 5.43839 53.2333 6.17172 52.78C6.91839 52.3267 7.45839 51.6933 7.79172 50.88C8.12505 50.0667 8.29172 49.1067 8.29172 48C8.29172 46.8933 8.12505 45.9333 7.79172 45.12C7.45839 44.3067 6.91839 43.6733 6.17172 43.22C5.43839 42.7667 4.45839 42.54 3.23172 42.54H2.01172V53.46ZM12.7239 55V41H21.4639V42.52H14.4039V47.18H20.8639V48.7H14.4039V53.48H21.4639V55H12.7239ZM27.9961 55L23.5361 41H25.3361L28.9961 52.82L32.6561 41H34.4761L29.9961 55H27.9961Z" fill="#686868"/>
</svg>
